<svg width="548" height="482" viewBox="0 0 548 482" fill="none" xmlns="http://www.w3.org/2000/svg">
<path d="M235 194L235 44" stroke="#CBD5E1" stroke-width="6" stroke-linecap="round"/>
<path d="M235 453L235 303" stroke="#CBD5E1" stroke-width="6" stroke-linecap="round"/>
<path d="M470 404L470 254" stroke="#CBD5E1" stroke-width="6" stroke-linecap="round"/>
<path d="M3 249L2.99999 99" stroke="#CBD5E1" stroke-width="6" stroke-linecap="round"/>
<path d="M85 153L85 3" stroke="#CBD5E1" stroke-width="6" stroke-linecap="round"/>
<path d="M470 249L470 99" stroke="#CBD5E1" stroke-width="6" stroke-linecap="round"/>
<path d="M186 399L186 249" stroke="#CBD5E1" stroke-width="6" stroke-linecap="round"/>
<path d="M387 329L387 179" stroke="#CBD5E1" stroke-width="6" stroke-linecap="round"/>
<path d="M103 479L103 329" stroke="#CBD5E1" stroke-width="6" stroke-linecap="round"/>
<path d="M85 43L235 43" stroke="#CBD5E1" stroke-width="6" stroke-linecap="round"/>
<path d="M395 99L545 99" stroke="#CBD5E1" stroke-width="6" stroke-linecap="round"/>
<path d="M3 249L153 249" stroke="#CBD5E1" stroke-width="6" stroke-linecap="round"/>
<path d="M320 249L470 249" stroke="#CBD5E1" stroke-width="6" stroke-linecap="round"/>
<path d="M36 399H186" stroke="#CBD5E1" stroke-width="6" stroke-linecap="round"/>
<path d="M220.5 301.5H370.5" stroke="#CBD5E1" stroke-width="6" stroke-linecap="round"/>
</svg>
