<svg width="891" height="529" viewBox="0 0 891 529" fill="none" xmlns="http://www.w3.org/2000/svg">
<rect y="59" width="891" height="470" rx="36" fill="#1E293B"/>
<rect x="63" width="735" height="442" rx="36" fill="url(#paint0_linear_4_24)"/>
<path d="M253 0H608V36C608 53.6731 593.673 68 576 68H285C267.327 68 253 53.6731 253 36V0Z" fill="white"/>
<rect x="109" y="100" width="223" height="51" rx="25.5" fill="#1E1E1E"/>
<rect x="756" y="410" width="377" height="84" rx="32" transform="rotate(-90 756 410)" fill="#1E1E1E"/>
<path d="M435.227 10.0341H437.5L446.818 28.3295H443.182L436.42 14.2955L436.648 14.4091H436.08L436.307 14.2955L429.545 28.3295H425.909L435.227 10.0341ZM435.227 36.4013H437.5L446.818 54.6967H443.182L436.42 40.6626L436.648 40.7763H436.08L436.307 40.6626L429.545 54.6967H425.909L435.227 36.4013Z" fill="black" fill-opacity="0.5"/>
<path d="M137.955 119.196V116.545H151.881V119.196H146.486V134H143.349V119.196H137.955ZM158.241 134.256C156.962 134.256 155.854 133.974 154.917 133.412C153.979 132.849 153.252 132.062 152.735 131.051C152.224 130.04 151.968 128.858 151.968 127.506C151.968 126.153 152.224 124.969 152.735 123.952C153.252 122.935 153.979 122.145 154.917 121.582C155.854 121.02 156.962 120.739 158.241 120.739C159.519 120.739 160.627 121.02 161.565 121.582C162.502 122.145 163.227 122.935 163.738 123.952C164.255 124.969 164.513 126.153 164.513 127.506C164.513 128.858 164.255 130.04 163.738 131.051C163.227 132.062 162.502 132.849 161.565 133.412C160.627 133.974 159.519 134.256 158.241 134.256ZM158.258 131.784C158.951 131.784 159.531 131.594 159.996 131.213C160.462 130.827 160.809 130.31 161.036 129.662C161.269 129.014 161.386 128.293 161.386 127.497C161.386 126.696 161.269 125.972 161.036 125.324C160.809 124.67 160.462 124.151 159.996 123.764C159.531 123.378 158.951 123.185 158.258 123.185C157.548 123.185 156.957 123.378 156.485 123.764C156.019 124.151 155.67 124.67 155.437 125.324C155.21 125.972 155.096 126.696 155.096 127.497C155.096 128.293 155.21 129.014 155.437 129.662C155.67 130.31 156.019 130.827 156.485 131.213C156.957 131.594 157.548 131.784 158.258 131.784ZM175.476 128.494V120.909H178.561V134H175.57V131.673H175.433C175.138 132.406 174.652 133.006 173.976 133.472C173.305 133.937 172.479 134.17 171.496 134.17C170.638 134.17 169.879 133.98 169.22 133.599C168.567 133.213 168.055 132.653 167.686 131.92C167.317 131.182 167.132 130.29 167.132 129.244V120.909H170.217V128.767C170.217 129.597 170.445 130.256 170.899 130.744C171.354 131.233 171.95 131.477 172.689 131.477C173.143 131.477 173.584 131.366 174.01 131.145C174.436 130.923 174.786 130.594 175.058 130.156C175.337 129.713 175.476 129.159 175.476 128.494ZM181.734 134V120.909H184.725V123.091H184.862C185.1 122.335 185.509 121.753 186.089 121.344C186.674 120.929 187.342 120.722 188.092 120.722C188.262 120.722 188.452 120.73 188.663 120.747C188.879 120.759 189.058 120.778 189.2 120.807V123.645C189.069 123.599 188.862 123.56 188.577 123.526C188.299 123.486 188.029 123.466 187.768 123.466C187.205 123.466 186.7 123.588 186.251 123.832C185.808 124.071 185.458 124.403 185.202 124.83C184.947 125.256 184.819 125.747 184.819 126.304V134H181.734ZM203.739 120.909V123.295H196.214V120.909H203.739ZM198.072 117.773H201.157V130.062C201.157 130.477 201.219 130.795 201.344 131.017C201.475 131.233 201.646 131.381 201.856 131.46C202.066 131.54 202.299 131.58 202.555 131.58C202.748 131.58 202.924 131.565 203.083 131.537C203.248 131.509 203.373 131.483 203.458 131.46L203.978 133.872C203.813 133.929 203.577 133.991 203.271 134.06C202.969 134.128 202.6 134.168 202.163 134.179C201.39 134.202 200.694 134.085 200.075 133.83C199.455 133.568 198.964 133.165 198.6 132.619C198.242 132.074 198.066 131.392 198.072 130.574V117.773ZM211.889 134.256C210.611 134.256 209.503 133.974 208.565 133.412C207.628 132.849 206.901 132.062 206.384 131.051C205.872 130.04 205.616 128.858 205.616 127.506C205.616 126.153 205.872 124.969 206.384 123.952C206.901 122.935 207.628 122.145 208.565 121.582C209.503 121.02 210.611 120.739 211.889 120.739C213.168 120.739 214.276 121.02 215.213 121.582C216.151 122.145 216.875 122.935 217.386 123.952C217.903 124.969 218.162 126.153 218.162 127.506C218.162 128.858 217.903 130.04 217.386 131.051C216.875 132.062 216.151 132.849 215.213 133.412C214.276 133.974 213.168 134.256 211.889 134.256ZM211.906 131.784C212.599 131.784 213.179 131.594 213.645 131.213C214.111 130.827 214.457 130.31 214.685 129.662C214.918 129.014 215.034 128.293 215.034 127.497C215.034 126.696 214.918 125.972 214.685 125.324C214.457 124.67 214.111 124.151 213.645 123.764C213.179 123.378 212.599 123.185 211.906 123.185C211.196 123.185 210.605 123.378 210.134 123.764C209.668 124.151 209.318 124.67 209.085 125.324C208.858 125.972 208.744 126.696 208.744 127.497C208.744 128.293 208.858 129.014 209.085 129.662C209.318 130.31 209.668 130.827 210.134 131.213C210.605 131.594 211.196 131.784 211.906 131.784ZM226.87 116.545H230.739L235.921 129.193H236.126L241.308 116.545H245.177V134H242.143V122.009H241.981L237.157 133.949H234.89L230.066 121.983H229.904V134H226.87V116.545ZM254.279 134.256C252.967 134.256 251.833 133.983 250.879 133.438C249.93 132.886 249.2 132.108 248.688 131.102C248.177 130.091 247.921 128.901 247.921 127.531C247.921 126.185 248.177 125.003 248.688 123.986C249.205 122.963 249.927 122.168 250.853 121.599C251.779 121.026 252.867 120.739 254.117 120.739C254.924 120.739 255.685 120.869 256.401 121.131C257.123 121.386 257.759 121.784 258.31 122.324C258.867 122.864 259.305 123.551 259.623 124.386C259.941 125.216 260.1 126.205 260.1 127.352V128.298H249.37V126.219H257.143C257.137 125.628 257.009 125.102 256.759 124.642C256.509 124.176 256.16 123.81 255.711 123.543C255.268 123.276 254.751 123.142 254.16 123.142C253.529 123.142 252.975 123.295 252.498 123.602C252.021 123.903 251.648 124.301 251.381 124.795C251.12 125.284 250.987 125.821 250.981 126.406V128.222C250.981 128.983 251.12 129.636 251.398 130.182C251.677 130.722 252.066 131.136 252.566 131.426C253.066 131.71 253.651 131.852 254.322 131.852C254.771 131.852 255.177 131.79 255.54 131.665C255.904 131.534 256.219 131.344 256.487 131.094C256.754 130.844 256.955 130.534 257.092 130.165L259.972 130.489C259.79 131.25 259.444 131.915 258.933 132.483C258.427 133.045 257.779 133.483 256.989 133.795C256.2 134.102 255.296 134.256 254.279 134.256ZM268.42 134.256C267.114 134.256 265.991 133.969 265.054 133.395C264.122 132.821 263.403 132.028 262.898 131.017C262.398 130 262.148 128.83 262.148 127.506C262.148 126.176 262.403 125.003 262.915 123.986C263.426 122.963 264.148 122.168 265.08 121.599C266.017 121.026 267.125 120.739 268.403 120.739C269.466 120.739 270.406 120.935 271.224 121.327C272.048 121.713 272.705 122.261 273.193 122.972C273.682 123.676 273.96 124.5 274.028 125.443H271.08C270.96 124.812 270.676 124.287 270.227 123.866C269.784 123.44 269.19 123.227 268.446 123.227C267.815 123.227 267.261 123.398 266.784 123.739C266.307 124.074 265.935 124.557 265.668 125.188C265.406 125.818 265.276 126.574 265.276 127.455C265.276 128.347 265.406 129.114 265.668 129.756C265.929 130.392 266.295 130.884 266.767 131.23C267.244 131.571 267.804 131.741 268.446 131.741C268.901 131.741 269.307 131.656 269.665 131.486C270.028 131.31 270.332 131.057 270.577 130.727C270.821 130.398 270.989 129.997 271.08 129.526H274.028C273.955 130.452 273.682 131.273 273.21 131.989C272.739 132.699 272.097 133.256 271.284 133.659C270.472 134.057 269.517 134.256 268.42 134.256ZM282.272 134.256C280.965 134.256 279.843 133.969 278.906 133.395C277.974 132.821 277.255 132.028 276.749 131.017C276.249 130 275.999 128.83 275.999 127.506C275.999 126.176 276.255 125.003 276.766 123.986C277.278 122.963 277.999 122.168 278.931 121.599C279.869 121.026 280.977 120.739 282.255 120.739C283.317 120.739 284.258 120.935 285.076 121.327C285.9 121.713 286.556 122.261 287.045 122.972C287.533 123.676 287.812 124.5 287.88 125.443H284.931C284.812 124.812 284.528 124.287 284.079 123.866C283.636 123.44 283.042 123.227 282.298 123.227C281.667 123.227 281.113 123.398 280.636 123.739C280.158 124.074 279.786 124.557 279.519 125.188C279.258 125.818 279.127 126.574 279.127 127.455C279.127 128.347 279.258 129.114 279.519 129.756C279.781 130.392 280.147 130.884 280.619 131.23C281.096 131.571 281.656 131.741 282.298 131.741C282.752 131.741 283.158 131.656 283.516 131.486C283.88 131.31 284.184 131.057 284.428 130.727C284.673 130.398 284.84 129.997 284.931 129.526H287.88C287.806 130.452 287.533 131.273 287.062 131.989C286.59 132.699 285.948 133.256 285.136 133.659C284.323 134.057 283.369 134.256 282.272 134.256ZM296.124 134.256C294.845 134.256 293.737 133.974 292.8 133.412C291.862 132.849 291.135 132.062 290.618 131.051C290.107 130.04 289.851 128.858 289.851 127.506C289.851 126.153 290.107 124.969 290.618 123.952C291.135 122.935 291.862 122.145 292.8 121.582C293.737 121.02 294.845 120.739 296.124 120.739C297.402 120.739 298.51 121.02 299.447 121.582C300.385 122.145 301.109 122.935 301.621 123.952C302.138 124.969 302.396 126.153 302.396 127.506C302.396 128.858 302.138 130.04 301.621 131.051C301.109 132.062 300.385 132.849 299.447 133.412C298.51 133.974 297.402 134.256 296.124 134.256ZM296.141 131.784C296.834 131.784 297.413 131.594 297.879 131.213C298.345 130.827 298.692 130.31 298.919 129.662C299.152 129.014 299.268 128.293 299.268 127.497C299.268 126.696 299.152 125.972 298.919 125.324C298.692 124.67 298.345 124.151 297.879 123.764C297.413 123.378 296.834 123.185 296.141 123.185C295.43 123.185 294.839 123.378 294.368 123.764C293.902 124.151 293.553 124.67 293.32 125.324C293.092 125.972 292.979 126.696 292.979 127.497C292.979 128.293 293.092 129.014 293.32 129.662C293.553 130.31 293.902 130.827 294.368 131.213C294.839 131.594 295.43 131.784 296.141 131.784Z" fill="white"/>
<path d="M112.392 236H109.597L115.878 218.545H118.92L125.202 236H122.406L117.472 221.716H117.335L112.392 236ZM112.861 229.165H121.929V231.381H112.861V229.165ZM132.821 236.264C131.554 236.264 130.463 235.977 129.548 235.403C128.639 234.824 127.94 234.026 127.452 233.009C126.963 231.991 126.719 230.827 126.719 229.514C126.719 228.185 126.969 227.011 127.469 225.994C127.969 224.972 128.673 224.173 129.582 223.599C130.491 223.026 131.563 222.739 132.795 222.739C133.79 222.739 134.676 222.923 135.455 223.293C136.233 223.656 136.861 224.168 137.338 224.827C137.821 225.486 138.108 226.256 138.199 227.136H135.719C135.582 226.523 135.27 225.994 134.781 225.551C134.298 225.108 133.651 224.886 132.838 224.886C132.128 224.886 131.506 225.074 130.972 225.449C130.443 225.818 130.031 226.347 129.736 227.034C129.44 227.716 129.293 228.523 129.293 229.455C129.293 230.409 129.438 231.233 129.727 231.926C130.017 232.619 130.426 233.156 130.955 233.537C131.489 233.918 132.116 234.108 132.838 234.108C133.321 234.108 133.759 234.02 134.151 233.844C134.548 233.662 134.881 233.403 135.148 233.068C135.42 232.733 135.611 232.33 135.719 231.858H138.199C138.108 232.705 137.832 233.46 137.372 234.125C136.912 234.79 136.295 235.312 135.523 235.693C134.756 236.074 133.855 236.264 132.821 236.264ZM146.438 236.264C145.171 236.264 144.08 235.977 143.165 235.403C142.256 234.824 141.558 234.026 141.069 233.009C140.58 231.991 140.336 230.827 140.336 229.514C140.336 228.185 140.586 227.011 141.086 225.994C141.586 224.972 142.29 224.173 143.2 223.599C144.109 223.026 145.18 222.739 146.413 222.739C147.407 222.739 148.293 222.923 149.072 223.293C149.85 223.656 150.478 224.168 150.955 224.827C151.438 225.486 151.725 226.256 151.816 227.136H149.336C149.2 226.523 148.887 225.994 148.398 225.551C147.915 225.108 147.268 224.886 146.455 224.886C145.745 224.886 145.123 225.074 144.589 225.449C144.06 225.818 143.648 226.347 143.353 227.034C143.058 227.716 142.91 228.523 142.91 229.455C142.91 230.409 143.055 231.233 143.344 231.926C143.634 232.619 144.043 233.156 144.572 233.537C145.106 233.918 145.734 234.108 146.455 234.108C146.938 234.108 147.376 234.02 147.768 233.844C148.165 233.662 148.498 233.403 148.765 233.068C149.038 232.733 149.228 232.33 149.336 231.858H151.816C151.725 232.705 151.45 233.46 150.989 234.125C150.529 234.79 149.913 235.312 149.14 235.693C148.373 236.074 147.472 236.264 146.438 236.264ZM162.834 230.571V222.909H165.391V236H162.885V233.733H162.749C162.447 234.432 161.964 235.014 161.3 235.48C160.641 235.94 159.82 236.17 158.837 236.17C157.996 236.17 157.251 235.986 156.604 235.616C155.962 235.241 155.456 234.688 155.087 233.955C154.723 233.222 154.541 232.315 154.541 231.236V222.909H157.089V230.929C157.089 231.821 157.337 232.531 157.831 233.06C158.325 233.588 158.967 233.852 159.757 233.852C160.234 233.852 160.709 233.733 161.18 233.494C161.658 233.256 162.053 232.895 162.365 232.412C162.683 231.929 162.839 231.315 162.834 230.571ZM168.815 236V222.909H171.261V225.04H171.423C171.695 224.318 172.141 223.756 172.761 223.352C173.38 222.943 174.121 222.739 174.985 222.739C175.86 222.739 176.593 222.943 177.184 223.352C177.781 223.761 178.221 224.324 178.505 225.04H178.641C178.954 224.341 179.451 223.784 180.133 223.369C180.815 222.949 181.627 222.739 182.57 222.739C183.758 222.739 184.727 223.111 185.477 223.855C186.232 224.599 186.61 225.722 186.61 227.222V236H184.062V227.46C184.062 226.574 183.82 225.932 183.337 225.534C182.854 225.136 182.278 224.938 181.607 224.938C180.778 224.938 180.133 225.193 179.673 225.705C179.212 226.21 178.982 226.861 178.982 227.656V236H176.442V227.298C176.442 226.588 176.221 226.017 175.778 225.585C175.335 225.153 174.758 224.938 174.048 224.938C173.565 224.938 173.119 225.065 172.71 225.321C172.306 225.571 171.979 225.92 171.729 226.369C171.485 226.818 171.363 227.338 171.363 227.929V236H168.815ZM198.318 230.571V222.909H200.875V236H198.369V233.733H198.233C197.932 234.432 197.449 235.014 196.784 235.48C196.125 235.94 195.304 236.17 194.321 236.17C193.48 236.17 192.736 235.986 192.088 235.616C191.446 235.241 190.94 234.688 190.571 233.955C190.207 233.222 190.026 232.315 190.026 231.236V222.909H192.574V230.929C192.574 231.821 192.821 232.531 193.315 233.06C193.81 233.588 194.452 233.852 195.241 233.852C195.719 233.852 196.193 233.733 196.665 233.494C197.142 233.256 197.537 232.895 197.849 232.412C198.168 231.929 198.324 231.315 198.318 230.571ZM206.847 218.545V236H204.299V218.545H206.847ZM214.085 236.29C213.256 236.29 212.506 236.136 211.835 235.83C211.165 235.517 210.634 235.065 210.241 234.474C209.855 233.884 209.662 233.159 209.662 232.301C209.662 231.562 209.804 230.955 210.088 230.477C210.372 230 210.756 229.622 211.239 229.344C211.722 229.065 212.261 228.855 212.858 228.713C213.455 228.571 214.063 228.463 214.682 228.389C215.466 228.298 216.102 228.224 216.591 228.168C217.08 228.105 217.435 228.006 217.656 227.869C217.878 227.733 217.989 227.511 217.989 227.205V227.145C217.989 226.401 217.778 225.824 217.358 225.415C216.943 225.006 216.324 224.801 215.5 224.801C214.642 224.801 213.966 224.991 213.472 225.372C212.983 225.747 212.645 226.165 212.457 226.625L210.062 226.08C210.347 225.284 210.761 224.642 211.307 224.153C211.858 223.659 212.491 223.301 213.207 223.08C213.923 222.852 214.676 222.739 215.466 222.739C215.989 222.739 216.543 222.801 217.128 222.926C217.719 223.045 218.27 223.267 218.781 223.591C219.298 223.915 219.722 224.378 220.051 224.98C220.381 225.577 220.545 226.352 220.545 227.307V236H218.057V234.21H217.955C217.79 234.54 217.543 234.864 217.213 235.182C216.884 235.5 216.46 235.764 215.943 235.974C215.426 236.185 214.807 236.29 214.085 236.29ZM214.639 234.244C215.344 234.244 215.946 234.105 216.446 233.827C216.952 233.548 217.335 233.185 217.597 232.736C217.864 232.281 217.997 231.795 217.997 231.278V229.591C217.906 229.682 217.73 229.767 217.469 229.847C217.213 229.92 216.92 229.986 216.591 230.043C216.261 230.094 215.94 230.142 215.628 230.188C215.315 230.227 215.054 230.261 214.844 230.29C214.349 230.352 213.898 230.457 213.489 230.605C213.085 230.753 212.761 230.966 212.517 231.244C212.278 231.517 212.159 231.881 212.159 232.335C212.159 232.966 212.392 233.443 212.858 233.767C213.324 234.085 213.918 234.244 214.639 234.244ZM230.05 222.909V224.955H222.9V222.909H230.05ZM224.817 219.773H227.366V232.156C227.366 232.651 227.44 233.023 227.587 233.273C227.735 233.517 227.925 233.685 228.158 233.776C228.397 233.861 228.656 233.903 228.934 233.903C229.138 233.903 229.317 233.889 229.471 233.861C229.624 233.832 229.744 233.81 229.829 233.793L230.289 235.898C230.141 235.955 229.931 236.011 229.658 236.068C229.386 236.131 229.045 236.165 228.636 236.17C227.965 236.182 227.34 236.062 226.761 235.812C226.181 235.562 225.712 235.176 225.354 234.653C224.996 234.131 224.817 233.474 224.817 232.685V219.773ZM238.371 236.264C237.081 236.264 235.97 235.989 235.038 235.438C234.112 234.881 233.396 234.099 232.891 233.094C232.391 232.082 232.141 230.898 232.141 229.54C232.141 228.199 232.391 227.017 232.891 225.994C233.396 224.972 234.101 224.173 235.004 223.599C235.913 223.026 236.976 222.739 238.192 222.739C238.93 222.739 239.646 222.861 240.339 223.105C241.033 223.349 241.655 223.733 242.206 224.256C242.757 224.778 243.192 225.457 243.51 226.293C243.828 227.122 243.987 228.131 243.987 229.318V230.222H233.581V228.312H241.49C241.49 227.642 241.354 227.048 241.081 226.531C240.808 226.009 240.425 225.597 239.93 225.295C239.442 224.994 238.868 224.844 238.209 224.844C237.493 224.844 236.868 225.02 236.334 225.372C235.805 225.719 235.396 226.173 235.107 226.736C234.822 227.293 234.68 227.898 234.68 228.551V230.043C234.68 230.918 234.834 231.662 235.141 232.276C235.453 232.889 235.888 233.358 236.445 233.682C237.001 234 237.652 234.159 238.396 234.159C238.879 234.159 239.32 234.091 239.717 233.955C240.115 233.812 240.459 233.602 240.749 233.324C241.038 233.045 241.26 232.702 241.413 232.293L243.825 232.727C243.632 233.437 243.286 234.06 242.786 234.594C242.291 235.122 241.669 235.534 240.919 235.83C240.175 236.119 239.325 236.264 238.371 236.264ZM251.715 236.256C250.658 236.256 249.715 235.986 248.886 235.446C248.062 234.901 247.414 234.125 246.942 233.119C246.477 232.108 246.244 230.895 246.244 229.48C246.244 228.065 246.479 226.855 246.951 225.849C247.428 224.844 248.082 224.074 248.911 223.54C249.741 223.006 250.681 222.739 251.732 222.739C252.545 222.739 253.198 222.875 253.692 223.148C254.192 223.415 254.579 223.727 254.852 224.085C255.13 224.443 255.346 224.759 255.499 225.031H255.653V218.545H258.201V236H255.712V233.963H255.499C255.346 234.241 255.124 234.56 254.835 234.918C254.55 235.276 254.158 235.588 253.658 235.855C253.158 236.122 252.511 236.256 251.715 236.256ZM252.278 234.082C253.011 234.082 253.63 233.889 254.136 233.503C254.647 233.111 255.033 232.568 255.295 231.875C255.562 231.182 255.695 230.375 255.695 229.455C255.695 228.545 255.565 227.75 255.303 227.068C255.042 226.386 254.658 225.855 254.153 225.474C253.647 225.094 253.022 224.903 252.278 224.903C251.511 224.903 250.871 225.102 250.36 225.5C249.849 225.898 249.462 226.44 249.201 227.128C248.945 227.815 248.817 228.591 248.817 229.455C248.817 230.33 248.948 231.116 249.21 231.815C249.471 232.514 249.857 233.068 250.369 233.477C250.886 233.881 251.522 234.082 252.278 234.082ZM268.394 236V218.545H274.786C276.025 218.545 277.05 218.75 277.863 219.159C278.675 219.562 279.283 220.111 279.687 220.804C280.09 221.491 280.292 222.267 280.292 223.131C280.292 223.858 280.158 224.472 279.891 224.972C279.624 225.466 279.266 225.864 278.817 226.165C278.374 226.46 277.886 226.676 277.352 226.812V226.983C277.931 227.011 278.496 227.199 279.048 227.545C279.604 227.886 280.065 228.372 280.428 229.003C280.792 229.634 280.974 230.401 280.974 231.304C280.974 232.196 280.763 232.997 280.343 233.707C279.928 234.412 279.286 234.972 278.417 235.386C277.548 235.795 276.437 236 275.085 236H268.394ZM271.028 233.741H274.829C276.09 233.741 276.994 233.497 277.539 233.009C278.085 232.52 278.357 231.909 278.357 231.176C278.357 230.625 278.218 230.119 277.94 229.659C277.661 229.199 277.263 228.832 276.746 228.56C276.235 228.287 275.627 228.151 274.923 228.151H271.028V233.741ZM271.028 226.097H274.556C275.147 226.097 275.678 225.983 276.15 225.756C276.627 225.528 277.005 225.21 277.283 224.801C277.567 224.386 277.71 223.898 277.71 223.335C277.71 222.614 277.457 222.009 276.951 221.52C276.445 221.031 275.67 220.787 274.624 220.787H271.028V226.097ZM287.702 236.29C286.873 236.29 286.123 236.136 285.452 235.83C284.782 235.517 284.251 235.065 283.859 234.474C283.472 233.884 283.279 233.159 283.279 232.301C283.279 231.562 283.421 230.955 283.705 230.477C283.989 230 284.373 229.622 284.856 229.344C285.339 229.065 285.879 228.855 286.475 228.713C287.072 228.571 287.68 228.463 288.299 228.389C289.083 228.298 289.719 228.224 290.208 228.168C290.697 228.105 291.052 228.006 291.273 227.869C291.495 227.733 291.606 227.511 291.606 227.205V227.145C291.606 226.401 291.396 225.824 290.975 225.415C290.56 225.006 289.941 224.801 289.117 224.801C288.259 224.801 287.583 224.991 287.089 225.372C286.6 225.747 286.262 226.165 286.075 226.625L283.68 226.08C283.964 225.284 284.379 224.642 284.924 224.153C285.475 223.659 286.109 223.301 286.825 223.08C287.54 222.852 288.293 222.739 289.083 222.739C289.606 222.739 290.16 222.801 290.745 222.926C291.336 223.045 291.887 223.267 292.398 223.591C292.915 223.915 293.339 224.378 293.668 224.98C293.998 225.577 294.163 226.352 294.163 227.307V236H291.674V234.21H291.572C291.407 234.54 291.16 234.864 290.83 235.182C290.501 235.5 290.077 235.764 289.56 235.974C289.043 236.185 288.424 236.29 287.702 236.29ZM288.256 234.244C288.961 234.244 289.563 234.105 290.063 233.827C290.569 233.548 290.952 233.185 291.214 232.736C291.481 232.281 291.614 231.795 291.614 231.278V229.591C291.523 229.682 291.347 229.767 291.086 229.847C290.83 229.92 290.538 229.986 290.208 230.043C289.879 230.094 289.558 230.142 289.245 230.188C288.933 230.227 288.671 230.261 288.461 230.29C287.967 230.352 287.515 230.457 287.106 230.605C286.702 230.753 286.379 230.966 286.134 231.244C285.896 231.517 285.776 231.881 285.776 232.335C285.776 232.966 286.009 233.443 286.475 233.767C286.941 234.085 287.535 234.244 288.256 234.244ZM300.105 218.545V236H297.557V218.545H300.105ZM307.343 236.29C306.513 236.29 305.763 236.136 305.093 235.83C304.423 235.517 303.891 235.065 303.499 234.474C303.113 233.884 302.92 233.159 302.92 232.301C302.92 231.562 303.062 230.955 303.346 230.477C303.63 230 304.013 229.622 304.496 229.344C304.979 229.065 305.519 228.855 306.116 228.713C306.712 228.571 307.32 228.463 307.94 228.389C308.724 228.298 309.36 228.224 309.849 228.168C310.337 228.105 310.692 228.006 310.914 227.869C311.136 227.733 311.246 227.511 311.246 227.205V227.145C311.246 226.401 311.036 225.824 310.616 225.415C310.201 225.006 309.582 224.801 308.758 224.801C307.9 224.801 307.224 224.991 306.729 225.372C306.241 225.747 305.903 226.165 305.715 226.625L303.32 226.08C303.604 225.284 304.019 224.642 304.565 224.153C305.116 223.659 305.749 223.301 306.465 223.08C307.181 222.852 307.934 222.739 308.724 222.739C309.246 222.739 309.8 222.801 310.386 222.926C310.977 223.045 311.528 223.267 312.039 223.591C312.556 223.915 312.979 224.378 313.309 224.98C313.638 225.577 313.803 226.352 313.803 227.307V236H311.315V234.21H311.212C311.048 234.54 310.8 234.864 310.471 235.182C310.141 235.5 309.718 235.764 309.201 235.974C308.684 236.185 308.065 236.29 307.343 236.29ZM307.897 234.244C308.602 234.244 309.204 234.105 309.704 233.827C310.21 233.548 310.593 233.185 310.854 232.736C311.121 232.281 311.255 231.795 311.255 231.278V229.591C311.164 229.682 310.988 229.767 310.727 229.847C310.471 229.92 310.178 229.986 309.849 230.043C309.519 230.094 309.198 230.142 308.886 230.188C308.573 230.227 308.312 230.261 308.102 230.29C307.607 230.352 307.156 230.457 306.746 230.605C306.343 230.753 306.019 230.966 305.775 231.244C305.536 231.517 305.417 231.881 305.417 232.335C305.417 232.966 305.65 233.443 306.116 233.767C306.582 234.085 307.175 234.244 307.897 234.244ZM319.746 228.227V236H317.197V222.909H319.643V225.04H319.805C320.107 224.347 320.578 223.79 321.22 223.369C321.868 222.949 322.683 222.739 323.666 222.739C324.558 222.739 325.339 222.926 326.01 223.301C326.68 223.67 327.2 224.222 327.57 224.955C327.939 225.687 328.124 226.594 328.124 227.673V236H325.575V227.98C325.575 227.031 325.328 226.29 324.834 225.756C324.339 225.216 323.661 224.946 322.797 224.946C322.206 224.946 321.68 225.074 321.22 225.33C320.766 225.585 320.405 225.96 320.138 226.455C319.876 226.943 319.746 227.534 319.746 228.227ZM337.055 236.264C335.788 236.264 334.697 235.977 333.783 235.403C332.874 234.824 332.175 234.026 331.686 233.009C331.197 231.991 330.953 230.827 330.953 229.514C330.953 228.185 331.203 227.011 331.703 225.994C332.203 224.972 332.908 224.173 333.817 223.599C334.726 223.026 335.797 222.739 337.03 222.739C338.024 222.739 338.911 222.923 339.689 223.293C340.467 223.656 341.095 224.168 341.572 224.827C342.055 225.486 342.342 226.256 342.433 227.136H339.953C339.817 226.523 339.504 225.994 339.016 225.551C338.533 225.108 337.885 224.886 337.072 224.886C336.362 224.886 335.74 225.074 335.206 225.449C334.678 225.818 334.266 226.347 333.97 227.034C333.675 227.716 333.527 228.523 333.527 229.455C333.527 230.409 333.672 231.233 333.962 231.926C334.251 232.619 334.661 233.156 335.189 233.537C335.723 233.918 336.351 234.108 337.072 234.108C337.555 234.108 337.993 234.02 338.385 233.844C338.783 233.662 339.115 233.403 339.382 233.068C339.655 232.733 339.845 232.33 339.953 231.858H342.433C342.342 232.705 342.067 233.46 341.607 234.125C341.146 234.79 340.53 235.312 339.757 235.693C338.99 236.074 338.089 236.264 337.055 236.264ZM350.8 236.264C349.511 236.264 348.4 235.989 347.468 235.438C346.542 234.881 345.826 234.099 345.32 233.094C344.82 232.082 344.57 230.898 344.57 229.54C344.57 228.199 344.82 227.017 345.32 225.994C345.826 224.972 346.531 224.173 347.434 223.599C348.343 223.026 349.406 222.739 350.621 222.739C351.36 222.739 352.076 222.861 352.769 223.105C353.462 223.349 354.085 223.733 354.636 224.256C355.187 224.778 355.621 225.457 355.94 226.293C356.258 227.122 356.417 228.131 356.417 229.318V230.222H346.011V228.312H353.92C353.92 227.642 353.783 227.048 353.511 226.531C353.238 226.009 352.854 225.597 352.36 225.295C351.871 224.994 351.298 224.844 350.638 224.844C349.923 224.844 349.298 225.02 348.763 225.372C348.235 225.719 347.826 226.173 347.536 226.736C347.252 227.293 347.11 227.898 347.11 228.551V230.043C347.11 230.918 347.263 231.662 347.57 232.276C347.883 232.889 348.317 233.358 348.874 233.682C349.431 234 350.082 234.159 350.826 234.159C351.309 234.159 351.749 234.091 352.147 233.955C352.545 233.812 352.888 233.602 353.178 233.324C353.468 233.045 353.69 232.702 353.843 232.293L356.255 232.727C356.062 233.437 355.715 234.06 355.215 234.594C354.721 235.122 354.099 235.534 353.349 235.83C352.604 236.119 351.755 236.264 350.8 236.264Z" fill="white"/>
<path d="M544.679 134V132.091L550.585 125.972C551.216 125.307 551.736 124.724 552.145 124.224C552.56 123.719 552.869 123.239 553.074 122.784C553.278 122.33 553.381 121.847 553.381 121.335C553.381 120.756 553.244 120.256 552.972 119.835C552.699 119.409 552.327 119.082 551.855 118.855C551.384 118.622 550.852 118.506 550.261 118.506C549.636 118.506 549.091 118.634 548.625 118.889C548.159 119.145 547.801 119.506 547.551 119.972C547.301 120.437 547.176 120.983 547.176 121.608H544.662C544.662 120.545 544.906 119.616 545.395 118.821C545.884 118.026 546.554 117.409 547.406 116.972C548.259 116.528 549.227 116.307 550.312 116.307C551.409 116.307 552.375 116.526 553.21 116.963C554.051 117.395 554.707 117.986 555.179 118.736C555.651 119.48 555.886 120.321 555.886 121.259C555.886 121.906 555.764 122.54 555.52 123.159C555.281 123.778 554.864 124.469 554.267 125.23C553.67 125.986 552.841 126.903 551.778 127.983L548.31 131.614V131.741H556.168V134H544.679ZM565.159 134.239C564.091 134.239 563.131 134.034 562.278 133.625C561.432 133.21 560.756 132.642 560.25 131.92C559.744 131.199 559.474 130.375 559.44 129.449H561.997C562.06 130.199 562.392 130.815 562.994 131.298C563.597 131.781 564.318 132.023 565.159 132.023C565.83 132.023 566.423 131.869 566.94 131.562C567.463 131.25 567.872 130.821 568.168 130.276C568.469 129.73 568.619 129.108 568.619 128.409C568.619 127.699 568.466 127.065 568.159 126.509C567.852 125.952 567.429 125.514 566.889 125.196C566.355 124.878 565.741 124.716 565.048 124.71C564.52 124.71 563.989 124.801 563.455 124.983C562.92 125.165 562.489 125.403 562.159 125.699L559.747 125.341L560.727 116.545H570.324V118.804H562.918L562.364 123.688H562.466C562.807 123.358 563.259 123.082 563.821 122.861C564.389 122.639 564.997 122.528 565.645 122.528C566.707 122.528 567.653 122.781 568.483 123.287C569.318 123.793 569.974 124.483 570.452 125.358C570.935 126.227 571.173 127.227 571.168 128.358C571.173 129.489 570.918 130.497 570.401 131.384C569.889 132.27 569.179 132.969 568.27 133.48C567.366 133.986 566.33 134.239 565.159 134.239ZM580.871 116.545H584.067L589.624 130.114H589.828L595.385 116.545H598.581V134H596.075V121.369H595.913L590.766 133.974H588.686L583.538 121.361H583.376V134H580.871V116.545ZM606.015 134.29C605.185 134.29 604.435 134.136 603.765 133.83C603.094 133.517 602.563 133.065 602.171 132.474C601.785 131.884 601.592 131.159 601.592 130.301C601.592 129.562 601.734 128.955 602.018 128.477C602.302 128 602.685 127.622 603.168 127.344C603.651 127.065 604.191 126.855 604.788 126.713C605.384 126.571 605.992 126.463 606.612 126.389C607.396 126.298 608.032 126.224 608.521 126.168C609.009 126.105 609.364 126.006 609.586 125.869C609.808 125.733 609.918 125.511 609.918 125.205V125.145C609.918 124.401 609.708 123.824 609.288 123.415C608.873 123.006 608.254 122.801 607.43 122.801C606.572 122.801 605.896 122.991 605.401 123.372C604.913 123.747 604.575 124.165 604.387 124.625L601.992 124.08C602.276 123.284 602.691 122.642 603.237 122.153C603.788 121.659 604.421 121.301 605.137 121.08C605.853 120.852 606.606 120.739 607.396 120.739C607.918 120.739 608.472 120.801 609.058 120.926C609.648 121.045 610.2 121.267 610.711 121.591C611.228 121.915 611.651 122.378 611.981 122.98C612.31 123.577 612.475 124.352 612.475 125.307V134H609.987V132.21H609.884C609.719 132.54 609.472 132.864 609.143 133.182C608.813 133.5 608.39 133.764 607.873 133.974C607.356 134.185 606.737 134.29 606.015 134.29ZM606.569 132.244C607.273 132.244 607.876 132.105 608.376 131.827C608.881 131.548 609.265 131.185 609.526 130.736C609.793 130.281 609.927 129.795 609.927 129.278V127.591C609.836 127.682 609.66 127.767 609.398 127.847C609.143 127.92 608.85 127.986 608.521 128.043C608.191 128.094 607.87 128.142 607.558 128.188C607.245 128.227 606.984 128.261 606.773 128.29C606.279 128.352 605.827 128.457 605.418 128.605C605.015 128.753 604.691 128.966 604.447 129.244C604.208 129.517 604.089 129.881 604.089 130.335C604.089 130.966 604.322 131.443 604.788 131.767C605.254 132.085 605.847 132.244 606.569 132.244ZM615.869 134V120.909H618.332V122.989H618.469C618.707 122.284 619.128 121.73 619.73 121.327C620.338 120.918 621.026 120.713 621.793 120.713C621.952 120.713 622.139 120.719 622.355 120.73C622.577 120.741 622.75 120.756 622.875 120.773V123.21C622.773 123.182 622.591 123.151 622.33 123.116C622.068 123.077 621.807 123.057 621.545 123.057C620.943 123.057 620.406 123.185 619.935 123.44C619.469 123.69 619.099 124.04 618.827 124.489C618.554 124.932 618.418 125.437 618.418 126.006V134H615.869ZM630.126 134.264C628.859 134.264 627.768 133.977 626.853 133.403C625.944 132.824 625.245 132.026 624.756 131.009C624.268 129.991 624.023 128.827 624.023 127.514C624.023 126.185 624.273 125.011 624.773 123.994C625.273 122.972 625.978 122.173 626.887 121.599C627.796 121.026 628.867 120.739 630.1 120.739C631.094 120.739 631.981 120.923 632.759 121.293C633.538 121.656 634.165 122.168 634.643 122.827C635.126 123.486 635.413 124.256 635.504 125.136H633.023C632.887 124.523 632.575 123.994 632.086 123.551C631.603 123.108 630.955 122.886 630.143 122.886C629.433 122.886 628.81 123.074 628.276 123.449C627.748 123.818 627.336 124.347 627.04 125.034C626.745 125.716 626.597 126.523 626.597 127.455C626.597 128.409 626.742 129.233 627.032 129.926C627.322 130.619 627.731 131.156 628.259 131.537C628.793 131.918 629.421 132.108 630.143 132.108C630.626 132.108 631.063 132.02 631.455 131.844C631.853 131.662 632.185 131.403 632.452 131.068C632.725 130.733 632.915 130.33 633.023 129.858H635.504C635.413 130.705 635.137 131.46 634.677 132.125C634.217 132.79 633.6 133.312 632.827 133.693C632.06 134.074 631.16 134.264 630.126 134.264ZM640.777 126.227V134H638.229V116.545H640.743V123.04H640.905C641.212 122.335 641.68 121.776 642.311 121.361C642.942 120.946 643.766 120.739 644.783 120.739C645.68 120.739 646.464 120.923 647.135 121.293C647.811 121.662 648.334 122.213 648.703 122.946C649.078 123.673 649.266 124.582 649.266 125.673V134H646.717V125.98C646.717 125.02 646.47 124.276 645.976 123.747C645.482 123.213 644.794 122.946 643.913 122.946C643.311 122.946 642.771 123.074 642.294 123.33C641.822 123.585 641.45 123.96 641.178 124.455C640.911 124.943 640.777 125.534 640.777 126.227ZM658.984 134V132.091L664.89 125.972C665.521 125.307 666.04 124.724 666.45 124.224C666.864 123.719 667.174 123.239 667.379 122.784C667.583 122.33 667.685 121.847 667.685 121.335C667.685 120.756 667.549 120.256 667.276 119.835C667.004 119.409 666.631 119.082 666.16 118.855C665.688 118.622 665.157 118.506 664.566 118.506C663.941 118.506 663.396 118.634 662.93 118.889C662.464 119.145 662.106 119.506 661.856 119.972C661.606 120.437 661.481 120.983 661.481 121.608H658.967C658.967 120.545 659.211 119.616 659.7 118.821C660.188 118.026 660.859 117.409 661.711 116.972C662.563 116.528 663.532 116.307 664.617 116.307C665.714 116.307 666.68 116.526 667.515 116.963C668.356 117.395 669.012 117.986 669.484 118.736C669.955 119.48 670.191 120.321 670.191 121.259C670.191 121.906 670.069 122.54 669.825 123.159C669.586 123.778 669.168 124.469 668.572 125.23C667.975 125.986 667.146 126.903 666.083 127.983L662.614 131.614V131.741H670.472V134H658.984ZM679.779 134.29C678.433 134.284 677.282 133.929 676.327 133.224C675.373 132.52 674.643 131.494 674.137 130.148C673.631 128.801 673.379 127.179 673.379 125.281C673.379 123.389 673.631 121.773 674.137 120.432C674.648 119.091 675.381 118.068 676.336 117.364C677.296 116.659 678.444 116.307 679.779 116.307C681.114 116.307 682.259 116.662 683.214 117.372C684.168 118.077 684.898 119.099 685.404 120.44C685.915 121.776 686.171 123.389 686.171 125.281C686.171 127.185 685.918 128.81 685.413 130.156C684.907 131.497 684.177 132.523 683.222 133.233C682.268 133.938 681.12 134.29 679.779 134.29ZM679.779 132.014C680.961 132.014 681.884 131.438 682.549 130.284C683.219 129.131 683.555 127.463 683.555 125.281C683.555 123.832 683.401 122.608 683.094 121.608C682.793 120.602 682.359 119.841 681.79 119.324C681.228 118.801 680.558 118.54 679.779 118.54C678.603 118.54 677.68 119.119 677.009 120.278C676.339 121.437 676.001 123.105 675.995 125.281C675.995 126.736 676.146 127.966 676.447 128.972C676.754 129.972 677.188 130.73 677.751 131.247C678.313 131.759 678.989 132.014 679.779 132.014ZM689.195 134V132.091L695.101 125.972C695.732 125.307 696.251 124.724 696.661 124.224C697.075 123.719 697.385 123.239 697.589 122.784C697.794 122.33 697.896 121.847 697.896 121.335C697.896 120.756 697.76 120.256 697.487 119.835C697.214 119.409 696.842 119.082 696.371 118.855C695.899 118.622 695.368 118.506 694.777 118.506C694.152 118.506 693.607 118.634 693.141 118.889C692.675 119.145 692.317 119.506 692.067 119.972C691.817 120.437 691.692 120.983 691.692 121.608H689.178C689.178 120.545 689.422 119.616 689.911 118.821C690.399 118.026 691.07 117.409 691.922 116.972C692.774 116.528 693.743 116.307 694.828 116.307C695.925 116.307 696.891 116.526 697.726 116.963C698.567 117.395 699.223 117.986 699.695 118.736C700.166 119.48 700.402 120.321 700.402 121.259C700.402 121.906 700.28 122.54 700.036 123.159C699.797 123.778 699.379 124.469 698.783 125.23C698.186 125.986 697.357 126.903 696.294 127.983L692.825 131.614V131.741H700.683V134H689.195ZM709.99 134.239C708.82 134.239 707.774 134.037 706.854 133.634C705.939 133.23 705.214 132.67 704.68 131.955C704.152 131.233 703.868 130.398 703.828 129.449H706.504C706.538 129.966 706.712 130.415 707.024 130.795C707.342 131.17 707.757 131.46 708.268 131.665C708.78 131.869 709.348 131.972 709.973 131.972C710.661 131.972 711.268 131.852 711.797 131.614C712.331 131.375 712.749 131.043 713.05 130.616C713.351 130.185 713.501 129.688 713.501 129.125C713.501 128.54 713.351 128.026 713.05 127.582C712.754 127.134 712.32 126.781 711.746 126.526C711.178 126.27 710.49 126.142 709.683 126.142H708.209V123.994H709.683C710.331 123.994 710.899 123.878 711.388 123.645C711.882 123.412 712.268 123.088 712.547 122.673C712.825 122.253 712.964 121.761 712.964 121.199C712.964 120.659 712.842 120.19 712.598 119.793C712.359 119.389 712.018 119.074 711.575 118.847C711.138 118.619 710.621 118.506 710.024 118.506C709.456 118.506 708.925 118.611 708.43 118.821C707.942 119.026 707.544 119.321 707.237 119.707C706.93 120.088 706.766 120.545 706.743 121.08H704.195C704.223 120.136 704.501 119.307 705.03 118.591C705.564 117.875 706.268 117.315 707.143 116.912C708.018 116.509 708.99 116.307 710.058 116.307C711.178 116.307 712.143 116.526 712.956 116.963C713.774 117.395 714.405 117.972 714.848 118.693C715.297 119.415 715.518 120.205 715.513 121.062C715.518 122.04 715.246 122.869 714.695 123.551C714.149 124.233 713.422 124.69 712.513 124.923V125.06C713.672 125.236 714.57 125.696 715.206 126.44C715.848 127.185 716.166 128.108 716.161 129.21C716.166 130.17 715.899 131.031 715.359 131.793C714.825 132.554 714.095 133.153 713.169 133.591C712.243 134.023 711.183 134.239 709.99 134.239Z" fill="white"/>
<path d="M127.196 337.455V282.909H130.69V337.455H127.196ZM136.464 300.913C136.294 299.195 135.563 297.859 134.27 296.908C132.977 295.956 131.223 295.48 129.007 295.48C127.501 295.48 126.23 295.693 125.193 296.119C124.156 296.531 123.361 297.107 122.807 297.845C122.267 298.584 121.997 299.422 121.997 300.359C121.969 301.141 122.132 301.822 122.487 302.405C122.857 302.987 123.361 303.491 124 303.918C124.639 304.33 125.378 304.692 126.216 305.004C127.054 305.303 127.949 305.558 128.901 305.771L132.821 306.709C134.724 307.135 136.472 307.703 138.062 308.413C139.653 309.124 141.031 309.997 142.196 311.034C143.361 312.071 144.263 313.293 144.902 314.699C145.555 316.105 145.889 317.717 145.903 319.536C145.889 322.206 145.207 324.521 143.858 326.482C142.523 328.428 140.591 329.94 138.062 331.02C135.548 332.085 132.516 332.618 128.964 332.618C125.442 332.618 122.374 332.078 119.76 330.999C117.161 329.919 115.129 328.321 113.666 326.205C112.217 324.074 111.457 321.439 111.386 318.3H120.314C120.413 319.763 120.832 320.984 121.571 321.964C122.324 322.93 123.325 323.662 124.575 324.159C125.839 324.642 127.267 324.884 128.858 324.884C130.42 324.884 131.777 324.656 132.928 324.202C134.092 323.747 134.994 323.115 135.634 322.305C136.273 321.496 136.592 320.565 136.592 319.514C136.592 318.534 136.301 317.71 135.719 317.043C135.151 316.375 134.313 315.807 133.205 315.338C132.111 314.869 130.768 314.443 129.178 314.06L124.426 312.866C120.747 311.972 117.842 310.572 115.712 308.669C113.581 306.766 112.523 304.202 112.537 300.977C112.523 298.335 113.226 296.027 114.646 294.053C116.081 292.078 118.048 290.537 120.548 289.429C123.048 288.321 125.889 287.767 129.071 287.767C132.31 287.767 135.136 288.321 137.551 289.429C139.98 290.537 141.869 292.078 143.219 294.053C144.568 296.027 145.264 298.314 145.307 300.913H136.464ZM181.678 332.597C178.666 332.597 175.982 332.043 173.624 330.935C171.28 329.827 169.419 328.3 168.041 326.354C166.663 324.408 165.946 322.178 165.889 319.663H174.838C174.938 321.354 175.648 322.724 176.969 323.776C178.29 324.827 179.859 325.352 181.678 325.352C183.126 325.352 184.405 325.033 185.513 324.393C186.635 323.74 187.509 322.838 188.134 321.688C188.773 320.523 189.092 319.187 189.092 317.682C189.092 316.148 188.766 314.798 188.112 313.634C187.473 312.469 186.585 311.56 185.449 310.906C184.313 310.253 183.013 309.919 181.55 309.905C180.271 309.905 179.028 310.168 177.821 310.693C176.628 311.219 175.697 311.936 175.03 312.845L166.827 311.375L168.893 288.364H195.57V295.906H176.5L175.371 306.837H175.626C176.393 305.757 177.551 304.862 179.099 304.152C180.648 303.442 182.381 303.087 184.298 303.087C186.926 303.087 189.27 303.705 191.33 304.94C193.389 306.176 195.016 307.874 196.209 310.033C197.402 312.178 197.991 314.649 197.977 317.447C197.991 320.388 197.31 323.001 195.932 325.288C194.568 327.561 192.658 329.351 190.2 330.658C187.757 331.95 184.916 332.597 181.678 332.597ZM204.412 332V325.352L219.945 310.97C221.266 309.692 222.374 308.541 223.268 307.518C224.178 306.496 224.866 305.494 225.335 304.514C225.804 303.52 226.038 302.447 226.038 301.297C226.038 300.018 225.747 298.918 225.165 297.994C224.582 297.057 223.787 296.339 222.778 295.842C221.77 295.331 220.626 295.075 219.348 295.075C218.013 295.075 216.848 295.345 215.854 295.885C214.859 296.425 214.092 297.199 213.553 298.207C213.013 299.216 212.743 300.416 212.743 301.808H203.986C203.986 298.953 204.632 296.474 205.925 294.372C207.217 292.27 209.028 290.643 211.358 289.493C213.688 288.342 216.372 287.767 219.412 287.767C222.537 287.767 225.257 288.321 227.572 289.429C229.902 290.523 231.713 292.043 233.006 293.989C234.298 295.935 234.945 298.165 234.945 300.679C234.945 302.327 234.618 303.953 233.964 305.558C233.325 307.163 232.182 308.946 230.534 310.906C228.886 312.852 226.564 315.189 223.567 317.916L217.196 324.159V324.457H235.52V332H204.412ZM257.993 287.767C260.238 287.767 262.397 288.143 264.471 288.896C266.559 289.649 268.419 290.849 270.053 292.497C271.701 294.145 273 296.332 273.952 299.06C274.918 301.773 275.408 305.104 275.422 309.053C275.422 312.76 275.003 316.07 274.165 318.982C273.341 321.879 272.155 324.344 270.607 326.375C269.059 328.406 267.191 329.955 265.003 331.02C262.816 332.071 260.373 332.597 257.674 332.597C254.762 332.597 252.191 332.036 249.961 330.913C247.73 329.777 245.934 328.236 244.57 326.29C243.221 324.33 242.404 322.128 242.12 319.685H251.218C251.573 321.276 252.319 322.511 253.455 323.392C254.591 324.259 255.998 324.692 257.674 324.692C260.515 324.692 262.674 323.456 264.151 320.984C265.628 318.499 266.374 315.097 266.388 310.778H266.09C265.436 312.057 264.556 313.158 263.448 314.081C262.34 314.99 261.069 315.693 259.634 316.19C258.213 316.688 256.701 316.936 255.096 316.936C252.525 316.936 250.23 316.332 248.213 315.125C246.196 313.918 244.605 312.256 243.441 310.139C242.276 308.023 241.694 305.608 241.694 302.895C241.679 299.969 242.354 297.362 243.718 295.075C245.081 292.788 246.985 290.999 249.428 289.706C251.885 288.399 254.74 287.753 257.993 287.767ZM258.057 295.011C256.623 295.011 255.344 295.352 254.222 296.034C253.114 296.716 252.233 297.632 251.58 298.783C250.941 299.933 250.628 301.219 250.642 302.639C250.642 304.074 250.955 305.366 251.58 306.517C252.219 307.653 253.086 308.562 254.179 309.244C255.287 309.912 256.551 310.246 257.972 310.246C259.037 310.246 260.025 310.047 260.934 309.649C261.843 309.251 262.631 308.705 263.299 308.009C263.98 307.298 264.513 306.482 264.897 305.558C265.28 304.635 265.472 303.655 265.472 302.618C265.458 301.24 265.131 299.976 264.492 298.825C263.853 297.675 262.972 296.751 261.85 296.055C260.728 295.359 259.463 295.011 258.057 295.011ZM290.007 326.034L289.772 328.378C289.588 330.253 289.233 332.121 288.707 333.982C288.196 335.857 287.656 337.554 287.088 339.074C286.534 340.594 286.086 341.787 285.745 342.653H279.865C280.078 341.815 280.369 340.643 280.738 339.138C281.108 337.646 281.456 335.97 281.782 334.109C282.109 332.249 282.315 330.352 282.4 328.42L282.507 326.034H290.007ZM298.306 332L316.395 296.205V295.906H295.323V288.364H325.941V296.013L307.83 332H298.306ZM347.397 332.597C344.215 332.597 341.381 332.05 338.895 330.956C336.424 329.848 334.471 328.328 333.036 326.396C331.615 324.45 330.884 322.206 330.841 319.663H340.131C340.188 320.729 340.536 321.666 341.175 322.476C341.828 323.271 342.695 323.889 343.775 324.33C344.854 324.77 346.069 324.99 347.418 324.99C348.824 324.99 350.067 324.741 351.147 324.244C352.226 323.747 353.071 323.058 353.682 322.178C354.293 321.297 354.598 320.281 354.598 319.131C354.598 317.966 354.272 316.936 353.618 316.041C352.979 315.132 352.056 314.422 350.848 313.911C349.655 313.399 348.235 313.143 346.587 313.143H342.517V306.368H346.587C347.979 306.368 349.208 306.126 350.273 305.643C351.353 305.161 352.191 304.493 352.787 303.641C353.384 302.774 353.682 301.766 353.682 300.615C353.682 299.521 353.419 298.562 352.894 297.739C352.382 296.901 351.658 296.247 350.721 295.778C349.797 295.31 348.718 295.075 347.482 295.075C346.232 295.075 345.088 295.303 344.051 295.757C343.015 296.197 342.184 296.83 341.559 297.653C340.934 298.477 340.6 299.443 340.557 300.551H331.715C331.757 298.037 332.475 295.821 333.867 293.903C335.259 291.986 337.134 290.487 339.492 289.408C341.864 288.314 344.542 287.767 347.525 287.767C350.536 287.767 353.171 288.314 355.429 289.408C357.688 290.501 359.442 291.979 360.692 293.839C361.956 295.686 362.581 297.76 362.567 300.061C362.581 302.504 361.821 304.543 360.287 306.176C358.767 307.81 356.786 308.847 354.343 309.287V309.628C357.553 310.04 359.996 311.155 361.672 312.973C363.363 314.777 364.201 317.036 364.186 319.749C364.201 322.234 363.483 324.443 362.034 326.375C360.6 328.307 358.618 329.827 356.09 330.935C353.561 332.043 350.664 332.597 347.397 332.597Z" fill="white"/>
<defs>
<linearGradient id="paint0_linear_4_24" x1="798" y1="11" x2="193.5" y2="339" gradientUnits="userSpaceOnUse">
<stop stop-color="#A3E635"/>
<stop offset="1" stop-color="#65A30D"/>
</linearGradient>
</defs>
</svg>
